<svg role="img" aria-label="Qurio" width="100%" viewBox="0 0 363 363" xmlns="http://www.w3.org/2000/svg" fill="none">
  <rect width="363" height="363" fill="#f8fafc" />

  <g transform="translate(27.225 27.225) scale(0.85)">
    <path
      fill="none"
      d="
M199.000000,364.000000 
	C132.689331,364.000000 66.878662,364.000000 1.033997,364.000000 
	C1.033997,243.064331 1.033997,122.128647 1.033997,1.096483 
	C121.893951,1.096483 242.788010,1.096483 363.841034,1.096483 
	C363.841034,121.999832 363.841034,242.999893 363.841034,364.000000 
	C309.128723,364.000000 254.314362,364.000000 199.000000,364.000000 
M142.569138,330.962738 
	C166.835632,333.362823 190.282135,330.378784 212.377167,321.274780 
	C199.670975,310.948425 187.340805,300.816559 174.830902,290.911652 
	C173.386047,289.767670 170.953888,289.547272 168.959000,289.476532 
	C159.663437,289.146820 150.174728,290.143219 141.090668,288.638916 
	C82.120590,278.873535 43.547150,225.353577 52.441765,166.352585 
	C61.410725,106.858429 120.480728,65.987343 179.316010,78.681122 
	C215.409744,86.468391 240.806534,107.667091 256.175934,141.001328 
	C260.986816,151.435501 263.756012,162.481812 264.334564,174.828934 
	C262.181519,173.859497 260.701843,173.200043 259.227692,172.528458 
	C241.631042,164.511627 223.478806,159.001755 203.847778,159.383713 
	C168.757523,160.066467 144.801163,187.887817 149.839203,222.562180 
	C152.114685,238.223206 159.803940,251.492676 169.701843,263.416718 
	C193.398819,291.964691 222.958817,312.496735 257.403870,326.020844 
	C273.703583,332.420593 290.513611,335.975372 308.198883,333.894470 
	C336.170471,330.603210 356.540100,308.306793 356.068634,280.331451 
	C355.586243,251.706161 338.352966,231.956604 319.105957,212.612579 
	C318.544739,214.348099 318.256866,215.276321 317.945221,216.196472 
	C313.631561,228.932388 309.224823,241.638321 305.109100,254.437836 
	C304.578674,256.087402 305.158844,258.391632 305.900391,260.099060 
	C308.530304,266.154297 312.086121,271.879028 314.089142,278.115082 
	C316.142273,284.506897 312.351593,290.356262 305.896881,291.853241 
	C291.992035,295.078033 279.592133,289.795624 266.620544,285.106232 
	C267.513428,283.839233 267.849274,283.272156 268.270508,282.777802 
	C305.132385,239.519180 315.970886,190.621964 298.796570,136.320984 
	C277.296387,68.342819 206.118668,25.061956 135.729889,36.423931 
	C54.936275,49.465431 0.750079,121.424835 10.712172,202.447784 
	C18.982861,269.714355 74.424980,324.106262 142.569138,330.962738 
z"
    />
    <path
      fill="#0f172a"
      d="
M142.111481,330.935913 
	C74.424980,324.106262 18.982861,269.714355 10.712172,202.447784 
	C0.750079,121.424835 54.936275,49.465431 135.729889,36.423931 
	C206.118668,25.061956 277.296387,68.342819 298.796570,136.320984 
	C315.970886,190.621964 305.132385,239.519180 268.270508,282.777802 
	C267.849274,283.272156 267.513428,283.839233 266.620544,285.106232 
	C279.592133,289.795624 291.992035,295.078033 305.896881,291.853241 
	C312.351593,290.356262 316.142273,284.506897 314.089142,278.115082 
	C312.086121,271.879028 308.530304,266.154297 305.900391,260.099060 
	C305.158844,258.391632 304.578674,256.087402 305.109100,254.437836 
	C309.224823,241.638321 313.631561,228.932388 317.945221,216.196472 
	C318.256866,215.276321 318.544739,214.348099 319.105957,212.612579 
	C338.352966,231.956604 355.586243,251.706161 356.068634,280.331451 
	C356.540100,308.306793 336.170471,330.603210 308.198883,333.894470 
	C290.513611,335.975372 273.703583,332.420593 257.403870,326.020844 
	C222.958817,312.496735 193.398819,291.964691 169.701843,263.416718 
	C159.803940,251.492676 152.114685,238.223206 149.839203,222.562180 
	C144.801163,187.887817 168.757523,160.066467 203.847778,159.383713 
	C223.478806,159.001755 241.631042,164.511627 259.227692,172.528458 
	C260.701843,173.200043 262.181519,173.859497 264.334564,174.828934 
	C263.756012,162.481812 260.986816,151.435501 256.175934,141.001328 
	C240.806534,107.667091 215.409744,86.468391 179.316010,78.681122 
	C120.480728,65.987343 61.410725,106.858429 52.441765,166.352585 
	C43.547150,225.353577 82.120590,278.873535 141.090668,288.638916 
	C150.174728,290.143219 159.663437,289.146820 168.959000,289.476532 
	C170.953888,289.547272 173.386047,289.767670 174.830902,290.911652 
	C187.340805,300.816559 199.670975,310.948425 212.377167,321.274780 
	C190.282135,330.378784 166.835632,333.362823 142.111481,330.935913 
M212.689621,248.809357 
	C217.204102,252.749039 221.741196,256.663239 226.222305,260.640503 
	C228.106827,262.313171 229.598190,262.685272 231.716293,260.652893 
	C243.817841,249.041122 252.637863,235.353241 258.781128,219.018250 
	C252.136444,215.668182 245.786453,212.029282 239.095673,209.194824 
	C228.782715,204.825912 218.292618,200.819366 206.779251,200.957916 
	C192.679382,201.127579 187.434113,208.883835 192.753830,221.958923 
	C193.877182,224.719925 195.125900,227.564240 196.938477,229.884583 
	C201.844818,236.165390 207.085541,242.184998 212.689621,248.809357 
z"
    />
    <path
      fill="#0f172a"
      opacity="0"
      d="
M212.441635,248.558777 
	C207.085541,242.184998 201.844818,236.165390 196.938477,229.884583 
	C195.125900,227.564240 193.877182,224.719925 192.753830,221.958923 
	C187.434113,208.883835 192.679382,201.127579 206.779251,200.957916 
	C218.292618,200.819366 228.782715,204.825912 239.095673,209.194824 
	C245.786453,212.029282 252.136444,215.668182 258.781128,219.018250 
	C243.817841,249.041122 231.716293,260.652893 226.222305,260.640503 
	C217.204102,252.749039 212.441635,248.558777 
z"
    />
  </g>
</svg>
