<svg width="24" height="24" viewBox="0 0 24 24" fill="none" stroke="#e5e7eb" stroke-width="2" stroke-linecap="round" stroke-linejoin="round" xmlns="http://www.w3.org/2000/svg">
  <path d="M12 2L16.5 4.5V9.5L12 12L7.5 9.5V4.5L12 2Z" />
  <path d="M12 12V7" />
  <path d="M16.5 4.5L12 7L7.5 4.5" />
  <path d="M16.5 9.5L21 12V17L16.5 19.5L12 17V12L16.5 9.5Z" />
  <path d="M16.5 19.5V14.5" />
  <path d="M21 12L16.5 14.5L12 12" />
  <path d="M7.5 9.5L12 12V17L7.5 19.5L3 17V12L7.5 9.5Z" />
  <path d="M7.5 19.5V14.5" />
  <path d="M12 12L7.5 14.5L3 12" />
</svg>
