<svg height="1em" style="flex:none;line-height:1" viewBox="0 0 24 24" width="1em" xmlns="http://www.w3.org/2000/svg"><title>GLM (Zhipu AI)</title><path clip-rule="evenodd" d="M12 2C6.477 2 2 6.477 2 12s4.477 10 10 10 10-4.477 10-10S17.523 2 12 2zm0 3c1.105 0 2 .895 2 2s-.895 2-2 2-2-.895-2-2 .895-2 2-2zm4.5 8.5c0 .83-.67 1.5-1.5 1.5h-6c-.83 0-1.5-.67-1.5-1.5s.67-1.5 1.5-1.5h6c.83 0 1.5.67 1.5 1.5zM7 12c1.105 0 2 .895 2 2s-.895 2-2 2-2-.895-2-2 .895-2 2-2zm10 0c1.105 0 2 .895 2 2s-.895 2-2 2-2-.895-2-2 .895-2 2-2z" fill="#134CFF" fill-rule="evenodd"></path></svg>